Coordinates
version=1
nRows=27
nColumns=38
inDegrees=no

Units are S.I. units (second, meters, Newtons, ...)
If the header above contains a line with 'inDegrees', this indicates whether rotational values are in degrees (yes) or radians (no).

endheader
time	pelvis_tilt	pelvis_list	pelvis_rotation	pelvis_tx	pelvis_ty	pelvis_tz	hip_flexion_r	hip_adduction_r	hip_rotation_r	knee_angle_r	ankle_angle_r	subtalar_angle_r	mtp_angle_r	hip_flexion_l	hip_adduction_l	hip_rotation_l	knee_angle_l	ankle_angle_l	subtalar_angle_l	mtp_angle_l	lumbar_extension	lumbar_bending	lumbar_rotation	arm_flex_r	arm_add_r	arm_rot_r	elbow_flex_r	pro_sup_r	wrist_flex_r	wrist_dev_r	arm_flex_l	arm_add_l	arm_rot_l	elbow_flex_l	pro_sup_l	wrist_flex_l	wrist_dev_l
25	2.47854	1.38924	0.938516	0.880828	-0.602739	0.914282	0.369488	-0.147644	-0.147698	0.700141	-0.21255	0	0	0.078104	-0.104452	-0.429168	0.0113139	-0.298174	0	0	0.0135445	0.0375839	-0.151454	-0.74039	-0.484065	-0.987158	1.7043	1.15277	0	0	0.241365	-0.139406	0.32692	0.100034	1.5708	0	0
25.01	2.33911	1.38099	1.0509	0.881111	-0.595708	0.910859	0.394488	-0.146704	-0.0821465	0.607777	-0.319737	0	0	0.100532	-0.0964292	-0.436494	0.0178233	-0.294175	0	0	0.0457732	0.0211549	-0.164544	-0.610446	-0.392184	-1.07824	1.7318	1.3472	0	0	0.217198	-0.149442	0.286111	0.115927	1.5708	0	0
25.02	2.4959	1.40531	0.86879	0.883116	-0.59296	0.910418	0.353563	-0.148794	-0.0952345	0.616163	-0.315911	0	0	0.0606628	-0.113131	-0.472439	0.0271851	-0.266374	0	0	0.0137544	0.0713927	-0.21137	-0.0268482	-0.141396	-1.37308	1.79612	1.5708	0	0	0.177425	-0.152559	0.230583	0.160512	1.5708	0	0
25.03	2.46495	1.40422	0.879643	0.88417	-0.588423	0.910509	0.351531	-0.157873	-0.0985701	0.61454	-0.317768	0	0	0.0634946	-0.114356	-0.472625	0.0259322	-0.26901	0	0	0.0166802	0.0688615	-0.209778	-0.0160393	-0.157593	-1.39175	1.81139	1.5708	0	0	0.172766	-0.152597	0.235316	0.169084	1.5708	0	0
25.04	2.32166	1.38972	1.00258	0.884724	-0.582247	0.909994	0.368996	-0.167345	-0.0944451	0.600773	-0.320883	0	0	0.0948092	-0.110216	-0.469137	0.0353069	-0.270273	0	0	0.0484652	0.0407044	-0.213482	-0.224182	-0.256591	-1.28227	1.79649	1.5708	0	0	0.156976	-0.162523	0.236226	0.183256	1.5708	0	0
25.05	2.28069	1.38811	1.02121	0.885714	-0.577038	0.909495	0.368942	-0.175866	-0.100373	0.596963	-0.321634	0	0	0.0979648	-0.110158	-0.472772	0.0330466	-0.273979	0	0	0.0539868	0.0367062	-0.209449	-0.207198	-0.269748	-1.30682	1.80385	1.5708	0	0	0.149649	-0.164412	0.235157	0.197927	1.5708	0	0
25.06	2.11513	1.37073	1.15813	0.88663	-0.569075	0.904958	0.412455	-0.194701	-0.0591587	0.623521	-0.302316	0	0	0.134231	-0.102536	-0.486624	0.0515876	-0.259977	0	0	0.0922397	0.0132324	-0.198239	-0.20102	-0.279018	-1.33062	1.81322	1.5708	0	0	0.131513	-0.174852	0.238192	0.223446	1.5708	0	0
25.07	2.22525	1.39009	1.03894	0.887631	-0.567848	0.909038	0.358982	-0.19898	-0.0931764	0.59157	-0.317398	0	0	0.102626	-0.113219	-0.491855	0.0449966	-0.26433	0	0	0.0568583	0.0313073	-0.207545	-0.172014	-0.30471	-1.35075	1.80689	1.5708	0	0	0.134121	-0.168491	0.231918	0.234564	1.5708	0	0
25.08	2.26055	1.40109	0.98952	0.888509	-0.563903	0.910253	0.333323	-0.199315	-0.129836	0.572165	-0.328996	0	0	0.0863757	-0.117141	-0.496166	0.0416918	-0.267551	0	0	0.040514	0.0338578	-0.209781	-0.148281	-0.325348	-1.37114	1.80149	1.5708	0	0	0.132815	-0.169018	0.235453	0.24843	1.5708	0	0
25.09	2.27844	1.40951	0.954678	0.889669	-0.559708	0.910068	0.317571	-0.20721	-0.14073	0.566322	-0.333899	0	0	0.0768088	-0.121418	-0.508183	0.0470279	-0.26323	0	0	0.0301547	0.0403566	-0.208084	-0.00544527	-0.305876	-1.4395	1.80492	1.5708	0	0	0.132299	-0.167283	0.237642	0.261181	1.5708	0	0
25.1	2.22725	1.40934	0.989748	0.890564	-0.554892	0.910254	0.315305	-0.216243	-0.145376	0.555874	-0.340741	0	0	0.0812886	-0.120053	-0.510143	0.0486447	-0.265898	0	0	0.0344042	0.0288563	-0.208555	-0.104943	-0.370449	-1.40703	1.77732	1.5708	0	0	0.129345	-0.170379	0.235937	0.272014	1.5708	0	0
25.11	2.1877	1.41267	1.0121	0.891571	-0.550332	0.90982	0.311455	-0.227372	-0.153093	0.550322	-0.344294	0	0	0.0807412	-0.118243	-0.51714	0.0506535	-0.265469	0	0	0.035802	0.0233175	-0.20516	-0.0858089	-0.395867	-1.42309	1.75847	1.5708	0	0	0.13095	-0.169926	0.239401	0.277834	1.5708	0	0
25.12	2.15193	1.41446	1.03146	0.892466	-0.545693	0.909525	0.307692	-0.23576	-0.158617	0.542596	-0.346935	0	0	0.0808159	-0.117775	-0.522203	0.0517919	-0.265724	0	0	0.0360793	0.0195491	-0.203149	-0.0669728	-0.42205	-1.43707	1.73618	1.5708	0	0	0.132556	-0.169535	0.243374	0.284219	1.5708	0	0
25.13	2.12411	1.41735	1.04367	0.893342	-0.540923	0.90929	0.301485	-0.242935	-0.163893	0.533587	-0.347229	0	0	0.0790358	-0.118176	-0.527191	0.0530403	-0.266125	0	0	0.0356869	0.0160785	-0.20041	-0.0479673	-0.448557	-1.44959	1.71081	1.5708	0	0	0.135858	-0.16871	0.243745	0.28892	1.5708	0	0
25.14	2.09608	1.42063	1.05615	0.894254	-0.536036	0.909051	0.295328	-0.249521	-0.168409	0.524587	-0.345682	0	0	0.0768218	-0.118592	-0.53292	0.0544094	-0.266811	0	0	0.0351249	0.0124467	-0.197546	-0.0289852	-0.475246	-1.45925	1.6831	1.5708	0	0	0.140074	-0.16802	0.244798	0.292534	1.5708	0	0
25.15	2.0612	1.42339	1.07681	0.895155	-0.531037	0.908581	0.290654	-0.256307	-0.172819	0.517041	-0.34313	0	0	0.0757424	-0.11854	-0.536298	0.055829	-0.267125	0	0	0.0365723	0.00771649	-0.192927	-0.0113601	-0.500922	-1.47089	1.65409	1.5708	0	0	0.146772	-0.166818	0.246847	0.293348	1.5708	0	0
25.16	2.02271	1.42399	1.10122	0.895985	-0.526063	0.907818	0.288646	-0.262022	-0.176223	0.5102	-0.336319	0	0	0.076793	-0.119376	-0.54057	0.0576072	-0.26963	0	0	0.0373905	0.0073566	-0.186787	0.228792	-0.473238	-1.5526	1.63507	1.5708	0	0	0.15367	-0.164451	0.248761	0.296393	1.5708	0	0
25.17	2.00842	1.42647	1.1028	0.897026	-0.52134	0.908267	0.277247	-0.266153	-0.189476	0.492808	-0.339093	0	0	0.0743562	-0.121917	-0.542804	0.0582405	-0.269114	0	0	0.0361445	0.00364873	-0.189827	0.034178	-0.550853	-1.48497	1.59132	1.5708	0	0	0.157416	-0.164806	0.244178	0.299867	1.5708	0	0
25.18	1.11058	1.40958	1.89161	0.904369	-0.514237	0.898425	0.430883	-0.40497	-0.109328	0.619766	-0.288891	0	0	0.0818885	0.0290738	-0.668873	0.0153379	-0.293516	0	0	0.0635966	-0.122425	-0.083093	0.0523225	-0.578464	-1.50528	1.57824	1.5708	0	0	0.165236	-0.180426	0.27747	0.334333	1.5708	0	0
25.19	1.10355	1.40934	1.89055	0.905018	-0.509031	0.898223	0.421249	-0.405515	-0.123322	0.605841	-0.285246	0	0	0.0817708	0.0226924	-0.66694	0.0179369	-0.291803	0	0	0.0655361	-0.122549	-0.0837516	0.072066	-0.601283	-1.51069	1.54487	1.5708	0	0	0.172338	-0.179739	0.280193	0.334255	1.5708	0	0
25.2	2.80833	1.43012	0.2017	0.908598	-0.508123	0.923627	0.188797	-0.187976	-0.160524	0.450818	-0.425015	0	0	-0.0496103	-0.198442	-0.61824	0.0272272	-0.315799	0	0	-0.114832	0.100544	-0.117813	0.170295	-0.654016	-1.47665	1.47796	1.5708	0	0	0.228982	-0.128651	0.192912	0.290867	1.5708	0	0
25.21	2.88671	1.42226	0.11596	0.909664	-0.503607	0.92514	0.165424	-0.175768	-0.177806	0.430556	-0.433168	0	0	-0.0666519	-0.211021	-0.61244	0.0149092	-0.335729	0	0	-0.129577	0.113424	-0.120136	0.201563	-0.678844	-1.47123	1.4416	1.5708	0	0	0.237772	-0.125383	0.182314	0.293298	1.5708	0	0
25.22	2.86748	1.4257	0.127096	0.910305	-0.498189	0.924505	0.16107	-0.177241	-0.187992	0.421907	-0.435048	0	0	-0.0668031	-0.212311	-0.615245	0.0154806	-0.331765	0	0	-0.126629	0.109687	-0.12059	0.220834	-0.700137	-1.47139	1.40773	1.5708	0	0	0.244422	-0.125373	0.185436	0.294452	1.5708	0	0
25.23	2.74113	1.44201	0.244025	0.910513	-0.491919	0.921836	0.175692	-0.195562	-0.193667	0.427442	-0.412668	0	0	-0.0579283	-0.194195	-0.614577	0.00560977	-0.340004	0	0	-0.106551	0.0869972	-0.121306	0.235153	-0.71626	-1.47382	1.37608	1.5708	0	0	0.245902	-0.129522	0.191129	0.298362	1.5708	0	0
25.24	0.954406	1.39761	1.99455	0.908876	-0.482394	0.89516	0.404228	-0.421647	-0.181076	0.573325	-0.261653	0	0	0.0711286	0.0263546	-0.673849	0	-0.323961	0	0	0.0780958	-0.143606	-0.0787166	0.173434	-0.709828	-1.51494	1.37784	1.5708	0	0	0.204398	-0.179086	0.280325	0.347036	1.5708	0	0
25.25	0.845187	1.37009	2.09098	0.910087	-0.474333	0.889953	0.306831	-0.438008	-0.385939	0.372978	-0.253698	0	0	0.0847395	0.0498268	-0.682214	0	-0.323109	0	0	0.103311	-0.179256	-0.0650634	0.18109	-0.722235	-1.52341	1.35793	1.5708	0	0	0.201255	-0.195548	0.300974	0.372795	1.5708	0	0
25.26	1.50949	1.45345	1.46147	0.908959	-0.468035	0.903569	0.278865	-0.295096	-0.178811	0.467074	-0.297546	0	0	0.0231442	-0.0922241	-0.606295	0	-0.339993	0	0	0.0262268	-0.05494	-0.122718	0.2289	-0.740245	-1.50331	1.30775	1.5708	0	0	0.228096	-0.169293	0.257663	0.330981	1.5708	0	0
